<mxfile host="app.diagrams.net" modified="2024-07-21T07:12:18.640Z" agent="Mozilla/5.0 (X11; Linux x86_64) AppleWebKit/537.36 (KHTML, like Gecko) Chrome/126.0.0.0 Safari/537.36" version="24.7.2" etag="vKUCbY_OLI6_mee_qGOw" type="github">
  <diagram name="Page-1" id="SXfcGG6b-WTv3CyQTydH">
    <mxGraphModel>
      <root>
        <mxCell id="0" />
        <mxCell id="1" parent="0" />
      </root>
    </mxGraphModel>
  </diagram>
</mxfile>
